<svg width="23" height="24" viewBox="0 0 23 24" fill="none" xmlns="http://www.w3.org/2000/svg">
<path d="M10 19.2852H5.5C4.67157 19.2852 4 18.6136 4 17.7852V10.2852" stroke="#B4BBCB" stroke-width="2" stroke-linecap="round" stroke-linejoin="round"/>
<path d="M1 8.78499L9.781 1.35499C10.3403 0.881669 11.1597 0.881669 11.719 1.35499L19.008 7.52299" stroke="#B4BBCB" stroke-width="2" stroke-linecap="round" stroke-linejoin="round"/>
<path d="M16 1.28516H19V4.28516" stroke="#B4BBCB" stroke-width="2" stroke-linecap="round" stroke-linejoin="round"/>
<path d="M17.5 14.4102C17.7071 14.4102 17.875 14.578 17.875 14.7852C17.875 14.9923 17.7071 15.1602 17.5 15.1602C17.2929 15.1602 17.125 14.9923 17.125 14.7852C17.125 14.578 17.2929 14.4102 17.5 14.4102" stroke="#B4BBCB" stroke-width="2" stroke-linecap="round" stroke-linejoin="round"/>
<path fill-rule="evenodd" clip-rule="evenodd" d="M17.5 10.2852C19.9853 10.2852 22 12.2999 22 14.7852C22 16.7062 19.312 20.4352 18.091 21.9972C17.9489 22.1791 17.7309 22.2854 17.5 22.2854C17.2691 22.2854 17.0511 22.1791 16.909 21.9972C15.688 20.4352 13 16.7062 13 14.7852C13 12.2999 15.0147 10.2852 17.5 10.2852Z" stroke="#B4BBCB" stroke-width="2" stroke-linecap="round" stroke-linejoin="round"/>
</svg>
