<svg width="28" height="27" viewBox="0 0 28 27" fill="none" xmlns="http://www.w3.org/2000/svg">
<path fill-rule="evenodd" clip-rule="evenodd" d="M1.19077 2.14127C1.62246 1.28996 2.53793 0.747559 3.5431 0.747559H19.5242C20.3659 0.747559 21.1559 1.12908 21.6447 1.77177L22.8234 3.32141C23.5597 4.28947 22.8218 5.63318 21.5539 5.63318C21.3776 5.63318 21.2276 5.75369 21.2006 5.91706L18.9163 19.7315C18.6293 21.4672 17.036 22.7476 15.1631 22.7476H8.29208C6.36421 22.7476 4.74215 21.393 4.51943 19.5971L2.86822 6.28262C2.82231 5.91241 2.48793 5.63318 2.09051 5.63318C0.850877 5.63318 0.0345522 4.42138 0.566933 3.3715L1.19077 2.14127ZM3.5431 2.8428C3.40008 2.8428 3.26983 2.91997 3.2084 3.0411L2.90362 3.64214C4.05741 3.94462 4.94297 4.87572 5.08743 6.04057L6.73864 19.3551C6.83035 20.0946 7.49825 20.6523 8.29208 20.6523H15.1631C15.9343 20.6523 16.5904 20.1251 16.7086 19.4104L18.9928 5.59598C19.1271 4.78379 19.6806 4.1177 20.4273 3.77929L19.8259 2.98853C19.7563 2.89708 19.6439 2.8428 19.5242 2.8428H3.5431Z" fill="#1D4D4F"/>
<path d="M14.8123 8.36328H16.085C15.7072 6.39453 14.0566 5.04226 11.9089 5.04226C9.29883 5.04226 7.45437 7.05078 7.45437 10.2724C7.45437 13.494 9.28391 15.5025 11.9885 15.5025C14.4146 15.5025 16.1447 13.8867 16.1447 11.3661V10.2724H12.2669V11.3661H14.9515C14.9167 13.1957 13.7136 14.3491 11.9885 14.3491C10.0993 14.3491 8.64755 12.9173 8.64755 10.2724C8.64755 7.62749 10.0993 6.19567 11.9089 6.19567C13.3805 6.19567 14.3798 7.02592 14.8123 8.36328Z" fill="#1D4D4F"/>
</svg>
