<svg width="43" height="40" viewBox="0 0 43 40" fill="none" xmlns="http://www.w3.org/2000/svg">
<rect x="0.609317" y="0.609317" width="41.4335" height="38.7814" rx="4.26522" fill="#EFF4FD" stroke="#DFE4EC" stroke-width="1.21863"/>
<path fill-rule="evenodd" clip-rule="evenodd" d="M11.6495 16.0611C12.0224 15.3259 12.813 14.8574 13.6811 14.8574H27.4829C28.2099 14.8574 28.8921 15.1869 29.3143 15.742L30.3323 17.0803C30.9682 17.9163 30.3309 19.0768 29.2358 19.0768C29.0836 19.0768 28.9541 19.1809 28.9308 19.322L26.958 31.2526C26.7101 32.7516 25.3341 33.8574 23.7166 33.8574H17.7825C16.1175 33.8574 14.7166 32.6876 14.5243 31.1366L13.0982 19.6377C13.0586 19.318 12.7698 19.0768 12.4266 19.0768C11.356 19.0768 10.651 18.0303 11.1108 17.1236L11.6495 16.0611ZM13.6811 16.6669C13.5576 16.6669 13.4451 16.7336 13.392 16.8382L13.1288 17.3573C14.1253 17.6185 14.8901 18.4227 15.0148 19.4287L16.4409 30.9276C16.5201 31.5662 17.0969 32.0479 17.7825 32.0479H23.7166C24.3826 32.0479 24.9492 31.5926 25.0513 30.9753L27.024 19.0447C27.14 18.3433 27.618 17.768 28.2629 17.4757L27.7435 16.7928C27.6834 16.7138 27.5863 16.6669 27.4829 16.6669H13.6811Z" fill="#1D4D4F"/>
<path d="M16.6761 20.7381H19.8778V29.8262H21.1108V20.7381H24.3125V19.6444H16.6761V20.7381Z" fill="#1D4D4F"/>
</svg>
