<svg width="38" height="35" viewBox="0 0 38 35" fill="none" xmlns="http://www.w3.org/2000/svg">
<path fill-rule="evenodd" clip-rule="evenodd" d="M4.47392 3.4718C5.06259 2.31092 6.31095 1.57129 7.68165 1.57129H29.474C30.6219 1.57129 31.699 2.09154 32.3657 2.96794L33.973 5.08108C34.9771 6.40117 33.9708 8.2335 32.2418 8.2335C32.0014 8.2335 31.7969 8.39784 31.7601 8.6206L28.6451 27.4585C28.2538 29.8253 26.0811 31.5713 23.5271 31.5713H14.1575C11.5286 31.5713 9.31672 29.7242 9.01301 27.2753L6.76136 9.1191C6.69875 8.61427 6.24278 8.2335 5.70084 8.2335C4.01043 8.2335 2.89726 6.58105 3.62323 5.1494L4.47392 3.4718ZM7.68165 4.42843C7.48662 4.42843 7.309 4.53367 7.22524 4.69884L6.80963 5.51845C8.38297 5.93091 9.59055 7.2006 9.78754 8.78903L12.0392 26.9452C12.1643 27.9536 13.075 28.7141 14.1575 28.7141H23.5271C24.5787 28.7141 25.4734 27.9952 25.6345 27.0206L28.7495 8.18277C28.9326 7.07524 29.6874 6.16694 30.7056 5.70546L29.8854 4.62715C29.7906 4.50245 29.6373 4.42843 29.474 4.42843H7.68165Z" fill="#1D4D4F"/>
<path d="M16.0158 12.346H14.7232L18.4618 22.5278H19.7346L23.4732 12.346H22.1806L19.1578 20.917H19.0385L16.0158 12.346Z" fill="#1D4D4F"/>
</svg>
